<?xml version="1.0" encoding="utf-8"?>
<!-- Generator: Adobe Illustrator 25.3.0, SVG Export Plug-In . SVG Version: 6.00 Build 0)  -->
<svg version="1.1" id="Capa_1" xmlns="http://www.w3.org/2000/svg" xmlns:xlink="http://www.w3.org/1999/xlink" x="0px" y="0px"
	 viewBox="0 0 401 87" style="enable-background:new 0 0 401 87;" xml:space="preserve">
<style type="text/css">
	.st0{fill:#0071F8;}
</style>
<g>
	<path class="st0" d="M15.86,21.91h14.65l-5.74,21.14l21.9-21.14h18.58L40.32,45.02L52.1,74.77H36.32l-7.63-20.39l-9.21,8.38
		l-3.17,12.01H1.58L15.86,21.91z"/>
	<path class="st0" d="M56.03,64.5c0-3.93,1.36-7.17,3.78-9.59c3.25-3.1,8.08-4.83,14.2-4.83c3.7,0,7.1,0.6,10.35,1.59l0.15-0.53
		c0.23-0.75,0.38-1.59,0.38-2.49c0-2.72-1.89-4.38-6.95-4.38c-3.85,0-8.08,0.83-11.03,1.96l-2.04-10.35
		c4.3-1.51,10.04-2.49,16.01-2.49c12.31,0,18.2,4.76,18.2,12.91c0,1.89-0.3,3.85-0.83,5.97l-6.04,22.5H78.08l1.21-4.46
		c-3.55,3.32-7.02,5.29-11.86,5.29C60.79,75.6,56.03,71.22,56.03,64.5z M82.46,59.37l0.38-1.36c-1.51-0.53-3.32-0.98-5.36-0.98
		c-2.57,0-4.53,0.68-5.89,2.04C70.53,60.12,70,61.41,70,62.99c0,2.34,1.66,3.78,4.08,3.78C77.78,66.77,81.33,63.6,82.46,59.37z"/>
	<path class="st0" d="M110.4,33.92h14.35l-1.28,4.68c2.79-2.95,6.8-5.59,11.63-5.59c7.48,0,11.86,4.68,11.86,12.23
		c0,2.19-0.45,4.68-1.13,7.32l-5.97,22.2h-14.27l5.74-21.37c0.3-1.13,0.45-2.49,0.45-3.4c0-2.72-1.59-4.3-4.61-4.3
		c-3.93,0-6.34,2.79-7.55,7.4l-5.82,21.67H99.45L110.4,33.92z"/>
	<path class="st0" d="M145.14,81.42l6.49-8.99c4.53,2.95,9.89,4.3,14.42,4.3c3.85,0,6.42-0.98,8.53-3.1
		c1.43-1.43,2.57-3.62,3.32-6.57l0.3-0.98c-3.7,3.32-7.32,5.06-12.46,5.06c-7.25,0-14.5-4.98-14.5-14.12
		c0-6.95,2.64-13.37,7.17-17.9c3.85-3.85,8.76-6.04,14.2-6.04c6.34,0,10.04,3.02,12.38,6.65l1.59-5.82h14.27l-8.68,32.47
		c-2.04,7.33-3.93,11.33-7.25,14.65c-4.15,4.15-9.74,5.97-18.28,5.97C158.73,87.01,150.58,84.82,145.14,81.42z M178.82,58.01
		c2.04-2.04,3.02-4.38,3.02-7.1c0-3.85-2.64-6.49-6.87-6.49c-2.57,0-4.68,0.91-6.42,2.72c-2.04,1.96-3.1,4.46-3.1,7.4
		c0,3.85,2.64,6.27,6.65,6.27C174.74,60.8,177.08,59.74,178.82,58.01z"/>
	<path class="st0" d="M200.87,63.44c0-2.19,0.53-4.83,1.21-7.32l5.89-22.2h14.35l-5.74,21.37c-0.3,1.13-0.53,2.42-0.53,3.32
		c0,2.72,1.59,4.3,4.61,4.3c4,0,6.34-2.64,7.63-7.4l5.82-21.6h14.27l-10.95,40.86h-14.27l1.21-4.68c-2.72,2.95-6.8,5.59-11.63,5.59
		C205.25,75.68,200.87,71,200.87,63.44z"/>
	<path class="st0" d="M244.07,68.58l7.1-8.31c4,3.55,9.36,5.51,13.59,5.51c2.42,0,3.62-0.98,3.62-2.49c0-1.43-1.59-2.34-5.51-3.85
		c-6.42-2.64-11.55-5.44-11.55-11.93c0-8.16,6.57-14.5,17.82-14.5c7.48,0,13.97,2.72,17.67,5.74l-6.87,8.53
		c-3.55-2.64-7.85-4.3-11.55-4.3c-2.34,0-3.55,0.75-3.55,2.34c0,1.44,1.43,2.12,5.66,3.85c5.89,2.42,11.4,5.06,11.4,11.93
		c0,7.85-5.89,14.65-17.67,14.65C256.37,75.75,248.97,73.11,244.07,68.58z"/>
	<path class="st0" d="M342.39,45.4h-4.83l3.1-11.48h4.76l0.23-0.83c1.13-4.53,2.79-7.48,4.98-9.67c3.02-3.02,7.1-4.3,12.54-4.3
		c3.55,0,6.42,0.45,9.14,1.28l-2.64,10.12c-1.51-0.6-3.4-0.91-4.83-0.91c-2.95,0-4.46,1.13-5.14,3.78l-0.23,0.76h9.21l-3.02,11.25
		h-8.99l-7.85,29.38h-14.27L342.39,45.4z"/>
	<path class="st0" d="M325.39,37.53c-0.87,0.04-1.75,0.07-2.62,0.07c-3.59,0.03-7.21,1.43-9.7,4.05c-0.95,0.96-1.68,2.08-2.23,3.3
		c0.04,0,0.08-0.01,0.13-0.01c4.3,0,7.17,2.79,7.17,7.55c0,3.02-1.21,6.49-3.55,8.68c-1.59,1.59-3.7,2.64-6.04,2.64
		c-4.23,0-7.1-2.79-7.1-7.63c0-3.02,1.21-6.34,3.55-8.68c0.05-0.05,0.1-0.09,0.14-0.13c-1.91-3.63-4.05-7.13-6.5-10.42
		c-1.39,0.92-2.67,1.98-3.84,3.15c-4.53,4.46-7.1,10.35-7.1,16.61c0,10.8,7.55,19.03,20.09,19.03c6.72,0,12.69-2.79,16.99-7.1
		c4.46-4.53,7.02-10.35,7.02-16.69C331.82,46.11,329.52,40.97,325.39,37.53z"/>
	<path class="st0" d="M368.82,65.94c0-1.74,0.3-3.32,0.83-5.36l4-15.18h-4.83l3.1-11.48h4.83l2.79-10.35h14.35l-2.79,10.35h9.52
		l-3.1,11.48H388l-3.47,12.91c-0.23,1.13-0.38,1.96-0.38,2.49c0,1.74,1.06,2.57,3.25,2.57c1.51,0,3.32-0.38,5.44-1.13l-3.17,11.86
		c-2.64,0.98-5.44,1.51-8.46,1.51C372.82,75.6,368.82,71.98,368.82,65.94z"/>
	<g>
		<defs>
			<path id="SVGID_1_" d="M223.37,0.3c0.12-0.14,0.37-0.43,0.5-0.57c1.09,1.24,2.05,2.61,3.34,3.66c3.7,3.2,8.64,4.43,13.39,4.95
				c6.96,0.74,13.98,0.43,20.97,0.8c8.09,0.33,16.21,1.42,23.92,3.99c7.95,2.59,15.36,6.72,21.88,11.92
				c0.92,0.78,2.22,1.38,3.42,0.88c0.83-0.31,1.26-1.3,0.89-2.12c-0.4-1.7-2.2-2.29-3.3-3.42c0.86-0.86,2.15-0.57,3.22-0.43
				c3.5,0.78,6.5,2.86,9.48,4.75c3.84,2.58,7.73,5.1,11.85,7.22c-0.4,1.14-1.36,2.27-2.66,2.27c-2.84,0.09-5.68,0.35-8.53,0.37
				c-3.28,0.03-6.59,1.31-8.87,3.7c-2.14,2.16-3.16,5.26-3.05,8.26c0,0.47,0.06,0.95,0,1.42c-0.33,0.81-1.66,0.87-1.97,0.02
				c-2.62-5.63-5.71-11.07-9.64-15.9c-4.2-5.19-9.44-9.59-15.45-12.53c-6.67-3.32-14.11-4.77-21.49-5.44
				c-6.93-0.71-13.95-0.7-20.81-2.04c-4.96-0.96-9.9-2.96-13.47-6.66C225.58,3.89,224.2,2.23,223.37,0.3z"/>
		</defs>
		<use xlink:href="#SVGID_1_"  style="overflow:visible;fill:#0071F8;"/>
		<clipPath id="SVGID_2_">
			<use xlink:href="#SVGID_1_"  style="overflow:visible;"/>
		</clipPath>
	</g>
</g>
</svg>
